<svg id="Layer_1" data-name="Layer 1" xmlns="http://www.w3.org/2000/svg" width="738.60437" height="1023.95607" viewBox="0 0 738.60437 1023.95607">
  <title>emukit</title>
  <polygon points="26.474 487.117 0.007 471.886 19.816 460.483 26.474 487.117" fill="none"/>
  <polygon points="655.852 426.752 365.293 594.545 74.735 426.752 365.293 258.958 655.852 426.752" fill="none"/>
  <polygon points="738.597 471.886 712.13 487.117 718.788 460.483 738.597 471.886" fill="none"/>
  <g>
    <polygon points="369.303 594.535 738.604 381.318 369.303 168.101 0 381.318 369.303 594.535" fill="#ff6851"/>
    <polygon points="369.303 549.284 723.68 344.684 369.303 140.084 14.925 344.684 369.303 549.284" fill="#ff7a58"/>
    <polygon points="369.303 504.033 708.755 308.05 369.303 112.067 29.85 308.05 369.303 504.033" fill="#ff895e"/>
    <polygon points="369.303 458.782 693.83 271.416 369.303 84.051 44.774 271.416 369.303 458.782" fill="#ff9a64"/>
    <polygon points="369.303 413.532 678.905 234.783 369.303 56.033 59.7 234.783 369.303 413.532" fill="#ffac6b"/>
    <polygon points="369.303 368.281 663.98 198.149 369.303 28.017 74.625 198.149 369.303 368.281" fill="#ffbb70"/>
    <polygon points="369.303 323.031 649.055 161.515 369.303 0 89.549 161.515 369.303 323.031" fill="#fc7"/>
  </g>
  <polygon points="712.13 487.117 645.046 756.702 613.668 882.88 369.302 1023.956 367.555 1022.958 368.969 684.957 369.302 685.123 712.13 487.117" fill="#ff5f4f"/>
  <polygon points="368.969 684.957 367.555 1022.958 124.937 882.88 93.558 756.702 26.474 487.117 368.969 684.957" fill="#ff9774"/>
  <polygon points="738.597 380.998 718.788 460.483 712.13 487.117 369.302 685.123 368.969 684.957 26.474 487.117 19.816 460.483 0.007 380.998 78.744 426.442 369.302 594.236 659.861 426.442 738.597 380.998" fill="#ff5f4f"/>
  <line x1="369.30182" y1="597.48137" x2="368.96921" y2="684.95693" fill="none"/>
</svg>
