<svg xmlns="http://www.w3.org/2000/svg" width="1024" height="1024" viewBox="0 0 1024 1024">
  <title>emukit</title>
  <polygon points="168.791 487.161 142.324 471.93 162.133 460.527 168.791 487.161" fill="none"/>
  <polygon points="798.169 426.796 507.61 594.589 217.052 426.796 507.61 259.002 798.169 426.796" fill="none"/>
  <polygon points="880.915 471.93 854.447 487.161 861.105 460.527 880.915 471.93" fill="none"/>
  <g>
    <polygon points="511.62 594.578 880.922 381.362 511.62 168.145 142.317 381.362 511.62 594.578" fill="#ff6851"/>
    <polygon points="511.62 549.328 865.997 344.728 511.62 140.128 157.242 344.728 511.62 549.328" fill="#ff7a58"/>
    <polygon points="511.62 504.077 851.072 308.094 511.62 112.111 172.167 308.094 511.62 504.077" fill="#ff895e"/>
    <polygon points="511.62 458.826 836.147 271.46 511.62 84.095 187.092 271.46 511.62 458.826" fill="#ff9a64"/>
    <polygon points="511.62 413.576 821.222 234.827 511.62 56.077 202.017 234.827 511.62 413.576" fill="#ffac6b"/>
    <polygon points="511.62 368.325 806.298 198.193 511.62 28.061 216.942 198.193 511.62 368.325" fill="#ffbb70"/>
    <polygon points="511.62 323.075 791.372 161.559 511.62 0.044 231.867 161.559 511.62 323.075" fill="#fc7"/>
  </g>
  <polygon points="854.447 487.161 787.363 756.746 755.985 882.924 511.619 1024 509.872 1023.001 511.286 685.001 511.619 685.167 854.447 487.161" fill="#ff5f4f"/>
  <polygon points="511.286 685.001 509.872 1023.001 267.254 882.924 235.876 756.746 168.791 487.161 511.286 685.001" fill="#ff9774"/>
  <polygon points="880.915 381.042 861.105 460.527 854.447 487.161 511.619 685.167 511.286 685.001 168.791 487.161 162.133 460.527 142.324 381.042 221.061 426.486 511.619 594.279 802.178 426.486 880.915 381.042" fill="#ff5f4f"/>
  <line x1="511.61902" y1="597.52531" x2="511.28641" y2="685.00086" fill="none"/>
</svg>
