<svg id="Layer_1" data-name="Layer 1" xmlns="http://www.w3.org/2000/svg" width="738.6" height="1023.96" viewBox="0 0 738.6 1023.96">
  <title>emukit</title>
  <polygon points="26.47 487.12 0.01 471.89 19.82 460.48 26.47 487.12" fill="none"/>
  <polygon points="655.85 426.75 365.29 594.54 74.73 426.75 365.29 258.96 655.85 426.75" fill="none"/>
  <polygon points="738.6 471.89 712.13 487.12 718.79 460.48 738.6 471.89" fill="none"/>
  <g>
    <polygon points="369.3 594.53 738.6 381.32 369.3 168.1 0 381.32 369.3 594.53" fill="#ff6851"/>
    <polygon points="369.3 549.28 723.68 344.68 369.3 140.08 14.93 344.68 369.3 549.28" fill="#ff7a58"/>
    <polygon points="369.3 504.03 708.75 308.05 369.3 112.07 29.85 308.05 369.3 504.03" fill="#ff895e"/>
    <polygon points="369.3 458.78 693.83 271.42 369.3 84.05 44.77 271.42 369.3 458.78" fill="#ff9a64"/>
    <polygon points="369.3 413.53 678.9 234.78 369.3 56.03 59.7 234.78 369.3 413.53" fill="#ffac6b"/>
    <polygon points="369.3 368.28 663.98 198.15 369.3 28.02 74.63 198.15 369.3 368.28" fill="#ffbb70"/>
    <polygon points="369.3 323.03 649.05 161.51 369.3 0 89.55 161.51 369.3 323.03" fill="#fc7"/>
  </g>
  <polygon points="712.13 487.12 645.05 756.7 613.67 882.88 369.3 1023.96 367.56 1022.96 368.97 684.96 369.3 685.12 712.13 487.12" fill="#ff5f4f"/>
  <polygon points="368.97 684.96 367.56 1022.96 124.94 882.88 93.56 756.7 26.47 487.12 368.97 684.96" fill="#ff9774"/>
  <polygon points="738.6 381 718.79 460.48 712.13 487.12 369.3 685.12 368.97 684.96 26.47 487.12 19.82 460.48 0.01 381 78.74 426.44 369.3 594.24 659.86 426.44 738.6 381" fill="#ff5f4f"/>
  <line x1="369.3" y1="597.48" x2="368.97" y2="684.96" fill="none"/>
</svg>
